<svg xmlns="http://www.w3.org/2000/svg" width="24" height="24" viewBox="0 0 24 24" fill="none" stroke="currentColor" stroke-width="2" stroke-linecap="round" stroke-linejoin="round" class="lucide lucide-house h-4 w-4" data-lov-id="src/pages/Services.tsx:48:14" data-lov-name="Home" data-component-path="src/pages/Services.tsx" data-component-line="48" data-component-file="Services.tsx" data-component-name="Home" data-component-content="%7B%22className%22%3A%22h-4%20w-4%22%7D"><path d="M15 21v-8a1 1 0 0 0-1-1h-4a1 1 0 0 0-1 1v8"></path><path d="M3 10a2 2 0 0 1 .709-1.528l7-5.999a2 2 0 0 1 2.582 0l7 5.999A2 2 0 0 1 21 10v9a2 2 0 0 1-2 2H5a2 2 0 0 1-2-2z"></path></svg>