<svg xmlns="http://www.w3.org/2000/svg" width="24" height="24" viewBox="0 0 24 24" fill="none" stroke="currentColor" stroke-width="2" stroke-linecap="round" stroke-linejoin="round" class="lucide lucide-badge-check h-12 w-12 text-fin-blue mb-4" data-lov-id="src/pages/Home.tsx:115:14" data-lov-name="BadgeCheck" data-component-path="src/pages/Home.tsx" data-component-line="115" data-component-file="Home.tsx" data-component-name="BadgeCheck" data-component-content="%7B%22className%22%3A%22h-12%20w-12%20text-fin-blue%20mb-4%22%7D"><path d="M3.85 8.62a4 4 0 0 1 4.78-4.77 4 4 0 0 1 6.74 0 4 4 0 0 1 4.78 4.78 4 4 0 0 1 0 6.74 4 4 0 0 1-4.77 4.78 4 4 0 0 1-6.75 0 4 4 0 0 1-4.78-4.77 4 4 0 0 1 0-6.76Z"></path><path d="m9 12 2 2 4-4"></path></svg>